# xmcd
#
# Track frame offsets: 
#        150
#        19962
#        34337
#        57697
#        70767
#        89590
#        114125
#        132810
#        150882
#        183822
#        202602
#        220712
#        241845
#        255617
#        275580
#
# Disc length: 3908 seconds
#
# Revision: 0
# Processed by: cddbd v1.5.1PL0 Copyright (c) Steve Scherf et al.
# Submitted via: ExactAudioCopy v0.95b2
#
DISCID=c50f420f
DTITLE=John Denver - The Best Of John Denver Live
DYEAR=1900
DGENRE=Country
TTITLE0=Rocky Mountain High
TTITLE1=Country Roads
TTITLE2=Back Home Again
TTITLE3=I Guess He'd Rather Be In Colorado
TTITLE4=Matthew
TTITLE5=Sunshine On My Shoulders
TTITLE6=Darcy Farrow
TTITLE7=Wild Montana Skies
TTITLE8=Medley: Leaving On A Jet Plane - Goodbye Again
TTITLE9=Bet On The Blues
TTITLE10=I'd Rather Be A Cowboy (Lady's Chains)
TTITLE11=Fly Away
TTITLE12=Annie's Song
TTITLE13=Poems, Prayers and Promises
TTITLE14=Calypso
EXTD=
EXTT0=
EXTT1=
EXTT2=
EXTT3=
EXTT4=
EXTT5=
EXTT6=
EXTT7=
EXTT8=
EXTT9=
EXTT10=
EXTT11=
EXTT12=
EXTT13=
EXTT14=
PLAYORDER=
